<svg width="36" height="36" viewBox="0 0 36 36" fill="none" xmlns="http://www.w3.org/2000/svg">
<g clip-path="url(#clip0_280_2669)">
<rect width="35.075" height="35.075" transform="translate(0.281433 0.764404)" fill="white"/>
<path d="M24.7945 0.781957C24.72 0.698654 22.0345 0.81484 19.6977 3.3512C17.3608 5.88537 17.7203 8.79221 17.7729 8.86675C17.8255 8.94128 21.105 9.05747 23.1986 6.10897C25.2921 3.16048 24.869 0.867453 24.7945 0.781957ZM32.0594 26.5029C31.9542 26.2925 26.9626 23.7977 27.4273 19.0012C27.8921 14.2047 31.0992 12.8872 31.1496 12.7447C31.2001 12.6022 29.8409 11.0129 28.4006 10.2084C27.3429 9.64169 26.1727 9.31674 24.9743 9.25696C24.7375 9.25038 23.9154 9.0487 22.2252 9.51125C21.1116 9.81597 18.6016 10.8025 17.911 10.8419C17.2183 10.8814 15.1576 9.69759 12.9413 9.3841C11.523 9.11008 10.0191 9.67128 8.94278 10.1031C7.8686 10.5328 5.82548 11.7561 4.39618 15.0071C2.96687 18.2559 3.71441 23.4032 4.2493 25.0034C4.7842 26.6037 5.61942 29.2212 7.03996 31.1328C8.30266 33.2899 9.97749 34.7872 10.6768 35.2958C11.3761 35.8044 13.3491 36.142 14.717 35.4426C15.8175 34.7675 17.8036 34.3794 18.5884 34.4079C19.371 34.4364 20.9143 34.7455 22.4949 35.5895C23.7466 36.0214 24.9304 35.8416 26.1164 35.3593C27.3024 34.8749 29.0188 33.0378 31.0225 29.3133C31.7825 27.5815 32.1281 26.6447 32.0594 26.5029Z" fill="black"/>
<path d="M24.7945 0.781957C24.72 0.698654 22.0345 0.81484 19.6977 3.3512C17.3608 5.88537 17.7203 8.79221 17.7729 8.86675C17.8255 8.94128 21.105 9.05747 23.1986 6.10897C25.2921 3.16048 24.869 0.867453 24.7945 0.781957ZM32.0594 26.5029C31.9542 26.2925 26.9626 23.7977 27.4273 19.0012C27.8921 14.2047 31.0992 12.8872 31.1496 12.7447C31.2001 12.6022 29.8409 11.0129 28.4006 10.2084C27.3429 9.64169 26.1727 9.31674 24.9743 9.25696C24.7375 9.25038 23.9154 9.0487 22.2252 9.51125C21.1116 9.81597 18.6016 10.8025 17.911 10.8419C17.2183 10.8814 15.1576 9.69759 12.9413 9.3841C11.523 9.11008 10.0191 9.67128 8.94278 10.1031C7.8686 10.5328 5.82548 11.7561 4.39618 15.0071C2.96687 18.2559 3.71441 23.4032 4.2493 25.0034C4.7842 26.6037 5.61942 29.2212 7.03996 31.1328C8.30266 33.2899 9.97749 34.7872 10.6768 35.2958C11.3761 35.8044 13.3491 36.142 14.717 35.4426C15.8175 34.7675 17.8036 34.3794 18.5884 34.4079C19.371 34.4364 20.9143 34.7455 22.4949 35.5895C23.7466 36.0214 24.9304 35.8416 26.1164 35.3593C27.3024 34.8749 29.0188 33.0378 31.0225 29.3133C31.7825 27.5815 32.1281 26.6447 32.0594 26.5029Z" fill="black"/>
</g>
<defs>
<clipPath id="clip0_280_2669">
<rect width="35.075" height="35.075" fill="white" transform="translate(0.281433 0.764404)"/>
</clipPath>
</defs>
</svg>
