<svg width="22" height="24" viewBox="0 0 22 24" fill="none" xmlns="http://www.w3.org/2000/svg">
<path d="M1 20.1296C1 18.7053 1.52678 17.3394 2.46447 16.3322C3.40215 15.3251 4.67392 14.7593 6 14.7593H16C17.3261 14.7593 18.5979 15.3251 19.5355 16.3322C20.4732 17.3394 21 18.7053 21 20.1296C21 20.8418 20.7366 21.5248 20.2678 22.0284C19.7989 22.5319 19.163 22.8148 18.5 22.8148H3.5C2.83696 22.8148 2.20107 22.5319 1.73223 22.0284C1.26339 21.5248 1 20.8418 1 20.1296Z" stroke="#A1A1A1" stroke-width="2" stroke-linejoin="round"/>
<path d="M11 9.38881C13.0711 9.38881 14.75 7.58551 14.75 5.36103C14.75 3.13655 13.0711 1.33325 11 1.33325C8.92893 1.33325 7.25 3.13655 7.25 5.36103C7.25 7.58551 8.92893 9.38881 11 9.38881Z" stroke="#A1A1A1" stroke-width="2"/>
</svg>
