<svg width="30" height="31" viewBox="0 0 30 31" fill="none" xmlns="http://www.w3.org/2000/svg">
<g clip-path="url(#clip0_280_2664)">
<rect width="29.6538" height="29.6538" transform="translate(0.0367432 0.829834)" fill="white"/>
<path d="M29.6905 15.6567C29.6905 7.46811 23.0522 0.829834 14.8636 0.829834C6.67501 0.829834 0.0367432 7.46811 0.0367432 15.6567C0.0367432 23.0572 5.45875 29.1912 12.5469 30.3035V19.9426H8.78229V15.6567H12.5469V12.3902C12.5469 8.67418 14.7605 6.62158 18.1473 6.62158C19.7695 6.62158 21.4662 6.91117 21.4662 6.91117V10.56H19.5966C17.7547 10.56 17.1803 11.7029 17.1803 12.8755V15.6567H21.2925L20.6351 19.9426H17.1803V30.3035C24.2685 29.1912 29.6905 23.0573 29.6905 15.6567Z" fill="#1877F2"/>
<path d="M20.6351 19.9426L21.2925 15.6567H17.1803V12.8755C17.1803 11.7028 17.7548 10.56 19.5966 10.56H21.4662V6.91117C21.4662 6.91117 19.7695 6.62158 18.1472 6.62158C14.7605 6.62158 12.5469 8.67418 12.5469 12.3902V15.6567H8.78229V19.9426H12.5469V30.3035C13.3133 30.4236 14.0879 30.4838 14.8636 30.4836C15.6394 30.4838 16.4139 30.4236 17.1803 30.3035V19.9426H20.6351Z" fill="white"/>
</g>
<defs>
<clipPath id="clip0_280_2664">
<rect width="29.6538" height="29.6538" fill="white" transform="translate(0.0367432 0.829834)"/>
</clipPath>
</defs>
</svg>
