<svg width="36" height="36" viewBox="0 0 36 36" fill="none" xmlns="http://www.w3.org/2000/svg">
<g clip-path="url(#clip0_280_2656)">
<path d="M12.6435 1.33484C9.07879 2.57146 6.0046 4.91862 3.87246 8.03155C1.74033 11.1445 0.662637 14.8591 0.797683 18.6298C0.932729 22.4005 2.2734 26.0285 4.62276 28.9809C6.97212 31.9333 10.2063 34.0546 13.8504 35.033C16.8047 35.7953 19.8999 35.8288 22.87 35.1306C25.5606 34.5262 28.0481 33.2334 30.089 31.3789C32.2132 29.3897 33.755 26.8593 34.5487 24.0595C35.4114 21.0149 35.5649 17.813 34.9974 14.6998H18.4076V21.5816H28.0153C27.8233 22.6792 27.4118 23.7268 26.8055 24.6616C26.1992 25.5965 25.4105 26.3994 24.4866 27.0224C23.3134 27.7984 21.9909 28.3206 20.6039 28.5554C19.2129 28.814 17.7862 28.814 16.3952 28.5554C14.9853 28.2639 13.6516 27.682 12.479 26.8468C10.5953 25.5133 9.18079 23.6189 8.43749 21.4339C7.68162 19.2079 7.68162 16.7948 8.43749 14.5688C8.96659 13.0085 9.84125 11.5879 10.9962 10.413C12.3179 9.04374 13.9912 8.06498 15.8326 7.58412C17.6739 7.10326 19.6121 7.13887 21.4346 7.68704C22.8582 8.12406 24.1601 8.88762 25.2364 9.91686C26.3197 8.83911 27.4012 7.75858 28.4808 6.67526C29.0382 6.09272 29.6459 5.53805 30.195 4.94157C28.552 3.41269 26.6236 2.22302 24.5201 1.44075C20.6895 0.0498752 16.4982 0.0124967 12.6435 1.33484Z" fill="white"/>
<path d="M12.6435 1.33473C16.4979 0.0114877 20.6892 0.0478823 24.5201 1.43786C26.6239 2.22544 28.5515 3.42083 30.1922 4.9554C29.6347 5.55187 29.0466 6.10933 28.478 6.68908C27.3965 7.76869 26.316 8.84458 25.2364 9.91675C24.1601 8.88751 22.8582 8.12395 21.4345 7.68693C19.6127 7.13683 17.6746 7.09917 15.8327 7.57806C13.9909 8.05696 12.3166 9.03391 10.9934 10.4017C9.83846 11.5767 8.9638 12.9973 8.4347 14.5576L2.65668 10.084C4.72486 5.98268 8.30578 2.8455 12.6435 1.33473Z" fill="#E33629"/>
<path d="M1.12369 14.5158C1.43425 12.9766 1.94985 11.4861 2.65669 10.084L8.43471 14.5687C7.67885 16.7946 7.67885 19.2078 8.43471 21.4338C6.50963 22.9203 4.58363 24.4143 2.65669 25.9157C0.887192 22.3935 0.347525 18.3803 1.12369 14.5158Z" fill="#F8BD00"/>
<path d="M18.4075 14.697H34.9974C35.5649 17.8102 35.4114 21.0121 34.5487 24.0567C33.7549 26.8565 32.2131 29.3869 30.089 31.3761C28.2243 29.9211 26.3513 28.4773 24.4866 27.0224C25.4111 26.3988 26.2001 25.595 26.8065 24.6591C27.4128 23.7233 27.824 22.6746 28.0153 21.576H18.4075C18.4048 19.2849 18.4075 16.9909 18.4075 14.697Z" fill="#587DBD"/>
<path d="M2.65387 25.9158C4.58081 24.4292 6.50681 22.9353 8.43189 21.4338C9.17667 23.6196 10.5932 25.5141 12.479 26.8467C13.6553 27.6781 14.9918 28.2552 16.4035 28.5414C17.7945 28.8 19.2213 28.8 20.6123 28.5414C21.9992 28.3066 23.3217 27.7844 24.495 27.0084C26.3596 28.4633 28.2327 29.9072 30.0974 31.3621C28.0568 33.2177 25.5692 34.5114 22.8783 35.1166C19.9082 35.8148 16.813 35.7813 13.8587 35.019C11.5222 34.3951 9.33964 33.2954 7.44798 31.7886C5.44578 30.1989 3.81046 28.1957 2.65387 25.9158Z" fill="#319F43"/>
</g>
<defs>
<clipPath id="clip0_280_2656">
<rect width="35.6771" height="35.6771" fill="white" transform="translate(0.215027 0.161377)"/>
</clipPath>
</defs>
</svg>
