<svg width="26" height="26" viewBox="0 0 26 26" fill="none" xmlns="http://www.w3.org/2000/svg">
<path fill-rule="evenodd" clip-rule="evenodd" d="M19.9126 18.1539L22.7678 21.0091L21.8879 21.8879L4.55352 4.55353L5.43133 3.67261L8.39019 6.63146C9.82038 6.05938 11.3749 5.74536 13 5.74536C17.9829 5.74536 22.2983 8.69696 24.4001 13C23.3862 15.0845 21.8378 16.8628 19.9126 18.1539ZM9.35816 7.60047L11.0827 9.325C11.8651 8.91597 12.7576 8.76741 13.6303 8.90095C14.503 9.0345 15.3103 9.44317 15.9346 10.0674C16.5589 10.6917 16.9675 11.499 17.1011 12.3717C17.2346 13.2444 17.0861 14.137 16.677 14.9194L19.0141 17.2564C20.6453 16.22 22.0237 14.766 22.9989 13.001C20.9656 9.32085 17.1807 6.98901 13 6.98901C11.7606 6.98979 10.5299 7.19642 9.35816 7.60047ZM15.7339 13.9763C15.9189 13.4588 15.9531 12.8995 15.8326 12.3633C15.7121 11.8272 15.4418 11.3363 15.0533 10.9477C14.6647 10.5592 14.1738 10.2889 13.6377 10.1684C13.1015 10.0479 12.5422 10.0821 12.0248 10.2671L15.7339 13.9763ZM17.6098 19.3696C16.1796 19.9416 14.625 20.2557 13 20.2557C8.01709 20.2557 3.70162 17.3041 1.59985 13.001C2.61376 10.9166 4.1622 9.13817 6.08736 7.84713L6.9859 8.74567C5.322 9.80733 3.95171 11.2703 3.00103 13C5.0344 16.6791 8.81925 19.011 13 19.011C14.2394 19.0102 15.4701 18.8036 16.6418 18.3995L17.6098 19.3696ZM9.32396 11.0827L10.266 12.0258C10.0811 12.5433 10.0469 13.1026 10.1674 13.6387C10.2879 14.1749 10.5581 14.6658 10.9467 15.0543C11.3352 15.4429 11.8262 15.7131 12.3623 15.8336C12.8984 15.9541 13.4578 15.9199 13.9752 15.735L14.9183 16.676C14.1359 17.085 13.2434 17.2336 12.3707 17.1001C11.498 16.9665 10.6907 16.5578 10.0664 15.9336C9.44213 15.3093 9.03346 14.502 8.89991 13.6293C8.76637 12.7566 8.91493 11.8651 9.32396 11.0827Z" fill="#4B3C3C"/>
</svg>
